<svg width="1000" height="1000" viewBox="0 0 1000 1000" fill="none" xmlns="http://www.w3.org/2000/svg">
  <rect width="1000" height="1000" fill="white"/>
  <circle cx="500" cy="500" r="380" stroke="#2563eb" stroke-width="40" fill="none" opacity="0.12"/>
  <circle cx="500" cy="500" r="380" stroke="#2563eb" stroke-width="5" fill="none" opacity="0.55"/>
  <circle cx="500" cy="180" r="38" fill="#dbeafe" stroke="#2563eb" stroke-width="5"/>
  <circle cx="660" cy="223" r="38" fill="#dbeafe" stroke="#2563eb" stroke-width="5"/>
  <circle cx="777" cy="340" r="38" fill="#dbeafe" stroke="#2563eb" stroke-width="5"/>
  <circle cx="820" cy="500" r="38" fill="#dbeafe" stroke="#2563eb" stroke-width="5"/>
  <circle cx="777" cy="660" r="38" fill="#dbeafe" stroke="#2563eb" stroke-width="5"/>
  <circle cx="660" cy="777" r="38" fill="#dbeafe" stroke="#2563eb" stroke-width="5"/>
  <circle cx="500" cy="820" r="38" fill="#dbeafe" stroke="#2563eb" stroke-width="5"/>
  <circle cx="340" cy="777" r="38" fill="#dbeafe" stroke="#2563eb" stroke-width="5"/>
  <circle cx="223" cy="660" r="38" fill="#dbeafe" stroke="#2563eb" stroke-width="5"/>
  <circle cx="180" cy="500" r="38" fill="#dbeafe" stroke="#2563eb" stroke-width="5"/>
  <circle cx="223" cy="340" r="38" fill="#dbeafe" stroke="#2563eb" stroke-width="5"/>
  <circle cx="340" cy="223" r="38" fill="#dbeafe" stroke="#2563eb" stroke-width="5"/>
  <circle cx="500" cy="500" r="320" stroke="#f59e0b" stroke-width="3" fill="none" stroke-dasharray="18 12" opacity="0.6"/>
  <circle cx="500" cy="500" r="220" stroke="#2563eb" stroke-width="32" fill="none" opacity="0.10"/>
  <circle cx="500" cy="500" r="220" stroke="#2563eb" stroke-width="4" fill="none" opacity="0.6"/>
  <circle cx="500" cy="500" r="105" fill="#eff6ff" stroke="#2563eb" stroke-width="4"/>
  <line x1="440" y1="500" x2="560" y2="500" stroke="#2563eb" stroke-width="3" opacity="0.35"/>
  <line x1="500" y1="440" x2="500" y2="560" stroke="#2563eb" stroke-width="3" opacity="0.35"/>
  <circle cx="500" cy="500" r="16" fill="#2563eb" opacity="0.75"/>
  <text x="500" y="910" text-anchor="middle" font-family="Arial,sans-serif" font-size="52" font-weight="800" fill="#1e293b">BSH2525-BALLSCREW</text>
  <text x="500" y="968" text-anchor="middle" font-family="Arial,sans-serif" font-size="28" fill="#64748b">Ahmed Dawod Bearings</text>
</svg>