<?xml version="1.0" encoding="UTF-8"?><svg id="Layer_2" xmlns="http://www.w3.org/2000/svg" xmlns:xlink="http://www.w3.org/1999/xlink" viewBox="0 0 2760 1504"><defs><linearGradient id="New_Gradient_Swatch_2" x1="816.11" y1="688.57" x2="1499.58" y2="688.57" gradientUnits="userSpaceOnUse"><stop offset=".28" stop-color="#204981"/><stop offset="1" stop-color="#2f5f9f"/></linearGradient><linearGradient id="linear-gradient" x1="1143.43" y1="782.54" x2="1105.67" y2="653.93" gradientUnits="userSpaceOnUse"><stop offset=".13" stop-color="#204981"/><stop offset=".25" stop-color="#224984"/></linearGradient><linearGradient id="New_Gradient_Swatch_2-2" x1="1283.99" x2="1929.05" xlink:href="#New_Gradient_Swatch_2"/><radialGradient id="radial-gradient" cx="1844.55" cy="889.45" fx="1844.55" fy="889.45" r="79.4" gradientUnits="userSpaceOnUse"><stop offset="0" stop-color="#e5a51f"/><stop offset=".53" stop-color="#e3a420"/><stop offset=".71" stop-color="#dfa327"/><stop offset=".85" stop-color="#d7a133"/><stop offset=".96" stop-color="#cc9e44"/><stop offset="1" stop-color="#c79d4d"/></radialGradient></defs><polygon points="971.1 963.39 816.11 963.39 1072.15 413.75 1241.49 413.75 1499.58 963.39 1343.9 963.39 1157.84 564.64 971.1 963.39" fill="url(#New_Gradient_Swatch_2)"/><polygon points="1291.46 831.64 1024.22 831.64 1079.68 720.75 1236.21 720.75 1291.46 831.64" fill="url(#linear-gradient)"/><polygon points="1290.91 413.75 1807.79 413.75 1929.05 519.18 1929.05 789.75 1732.76 963.39 1549.35 963.39 1400.8 656.36 1400.8 577.54 1556.93 577.54 1556.93 839.01 1719.12 839.01 1778.23 792.02 1778.23 586.63 1719.87 535.85 1344.72 535.85 1283.99 413.75 1290.91 413.75" fill="url(#New_Gradient_Swatch_2-2)"/><polygon points="1929.05 815.52 1929.05 858.72 1809.31 963.39 1760.04 963.39 1929.05 815.52" fill="url(#radial-gradient)"/></svg>