<?xml version="1.0" encoding="UTF-8" standalone="no"?>
<svg xmlns="http://www.w3.org/2000/svg" version="1.1" viewBox="0 0 300 108.37" height="108.37" width="300">
  <g transform="translate(-260.04,-561.45)">
    <g transform="matrix(3.15,0,0,-3.15,455.69,563.46)">
      <path fill="#0081cc" d="m 0,0 -28.7,0.09 0,-7.39 10.28,-0.01 0,-19.69 7.87,-6.28 0,22.89 -3.66,3.08 L 0,-7.34 0,0 Z" />
    </g>
    <g transform="matrix(3.15,0,0,-3.15,559.02,668.81)">
      <path fill="#0081cc" d="m 0,0 -22.61,18.09 -0.02,-18.09 -7.23,5.64 0,28.03 22.39,-18.05 0,17.60 7.47,0 L 0,0 Z" />
    </g>
    <g transform="matrix(3.15,0,0,-3.15,355.38,668.81)">
      <path fill="#0081cc" d="m 0,0 -22.61,18.09 0.001,-18.09 -7.25,5.64 0,28.03 22.39,-18.05 0,17.60 7.47,0 L 0,0 Z" />
    </g>
  </g>
</svg>
